<svg width="87" height="16" viewBox="0 0 87 16" fill="none" xmlns="http://www.w3.org/2000/svg">
<path d="M8.37781 0C3.65824 0 0 3.43242 0 7.97134C0 12.4877 3.65824 15.9878 8.37781 15.9878C13.0974 15.9878 16.7556 12.4877 16.7556 7.97134C16.7556 3.455 13.0974 0 8.37781 0ZM8.4004 2.39366C11.4941 2.39366 14.0232 4.83249 14.0232 7.97134C14.0232 11.1102 11.4941 13.5942 8.4004 13.5942C5.3067 13.5942 2.70981 11.1102 2.70981 7.97134C2.70981 4.83249 5.28412 2.39366 8.4004 2.39366Z" fill="#3A8199"/>
<path d="M30.1369 15.8749H33.3435L26.8174 6.81968L32.937 0.0677443H29.7982L22.2559 8.24232V0.0677443H19.5912V15.8749H22.2559V11.8554L24.9431 8.89719L30.1369 15.8749Z" fill="#3A8199"/>
<path d="M45.826 15.8749H48.852L45.3067 10.5908C47.4068 9.77788 48.581 7.99392 48.581 5.46477C48.581 2.03235 46.2551 0.0677443 42.213 0.0677443H35.7998V15.8749H38.4644V11.1102H42.213C42.4614 11.1102 42.7098 11.1102 42.9356 11.0876L45.826 15.8749ZM38.4644 8.71654V2.46141H42.213C44.6518 2.46141 46.0519 3.455 46.0519 5.53252C46.0519 7.67778 44.6518 8.71654 42.213 8.71654H38.4644Z" fill="#3A8199"/>
<path d="M62.196 11.0921C62.196 11.2818 62.3119 11.3767 62.5438 11.3767C62.7967 11.3767 63.2393 11.2291 63.8716 10.934C64.5249 10.639 65.2942 10.1858 66.1794 9.57463C67.0857 8.96342 68.2765 8.09929 69.7519 6.98225C71.2483 5.84413 72.555 4.88516 73.672 4.10534C73.8617 4.25287 73.9566 4.43202 73.9566 4.64279C73.9566 4.85355 73.8617 5.04323 73.672 5.21184C72.9976 5.86521 72.144 6.68718 71.1113 7.67777C70.0785 8.64728 68.4978 9.954 66.3691 11.598C64.2615 13.2419 62.7862 14.0639 61.9431 14.0639C60.3202 14.0639 59.5088 13.1997 59.5088 11.4715C59.5088 10.8181 59.7617 10.1332 60.2675 9.41656L61.627 7.55131C61.7534 7.36162 61.8166 7.25624 61.8166 7.23517C61.8166 7.19301 61.7534 7.22463 61.627 7.33001C57.9597 10.3861 55.6202 12.1776 54.6086 12.7045C54.44 12.8098 54.2292 12.8625 53.9763 12.8625C53.2808 12.8625 52.933 12.5464 52.933 11.9141C52.933 11.7033 52.9857 11.5136 53.0911 11.345C54.3135 9.57463 55.2514 8.38382 55.9048 7.77261L56.4422 7.23517C56.4844 7.19301 56.5054 7.15086 56.5054 7.10871C56.5054 7.06656 56.4844 7.04548 56.4422 7.04548C56.4001 7.04548 56.3368 7.08763 56.2525 7.17194L52.8698 9.82755C50.9097 11.3661 49.8348 12.1881 49.6451 12.2935C49.4765 12.3778 49.3184 12.4199 49.1709 12.4199C49.0234 12.4199 48.7915 12.3356 48.4754 12.167C48.1592 11.9773 48.0012 11.7666 48.0012 11.5347C48.0012 11.4715 48.0328 11.3872 48.096 11.2818C50.1615 9.00557 51.6684 7.12978 52.6169 5.65445C53.0173 5.02216 53.3651 4.46364 53.6601 3.97888C53.9763 3.47305 54.2187 3.11476 54.3873 2.90399C54.577 2.69323 54.7772 2.58785 54.9879 2.58785C55.1987 2.58785 55.4305 2.71431 55.6835 2.96722C55.9574 3.19906 56.0944 3.44144 56.0944 3.69435C56.0944 3.94727 56.0101 4.21072 55.8415 4.48471C55.1249 5.77037 54.5664 6.60288 54.166 6.98225C54.1027 7.04548 54.0711 7.10871 54.0711 7.17194C54.0711 7.21409 54.0922 7.23517 54.1344 7.23517L54.2292 7.20355L58.4655 4.26341C59.5404 3.52574 60.1832 3.15691 60.394 3.15691C60.6048 3.15691 60.8261 3.23068 61.0579 3.37821C61.3108 3.50467 61.4373 3.6522 61.4373 3.82081C61.4373 3.98942 61.3846 4.15803 61.2792 4.32664L59.2243 7.14032C58.9503 7.47754 58.8133 7.66723 58.8133 7.70938C58.8133 7.75153 58.8238 7.77261 58.8449 7.77261L59.003 7.67777C61.6375 5.88628 63.4184 4.64279 64.3458 3.94727C65.2942 3.25175 65.8633 2.80915 66.053 2.61947C66.348 2.4087 66.5904 2.30332 66.7801 2.30332C66.9909 2.30332 67.1279 2.3244 67.1911 2.36655L67.8866 2.90399C68.0974 3.00937 68.2028 3.14637 68.2028 3.31498C68.2028 3.48359 68.1606 3.62059 68.0763 3.72597C66.8328 5.07485 65.8317 6.14974 65.0729 6.95064C64.3353 7.75153 63.7978 8.34167 63.4606 8.72104C62.9126 9.37441 62.5754 9.90131 62.4489 10.3018C62.2803 10.5968 62.196 10.8603 62.196 11.0921Z" fill="#3A8199"/>
<path d="M78.2744 3.50467C77.7264 3.50467 76.7991 4.07373 75.4923 5.21184C74.1856 6.32889 73.5322 7.01387 73.5322 7.26678C73.5322 7.30893 73.5639 7.33001 73.6271 7.33001C74.0908 7.33001 75.0076 6.81364 76.3775 5.7809C77.7686 4.74817 78.4641 4.04211 78.4641 3.66274C78.4641 3.55736 78.4009 3.50467 78.2744 3.50467ZM71.5405 13.6213C69.9177 13.6213 69.1062 12.6307 69.1062 10.6495C69.1062 9.40602 69.6437 8.08876 70.7186 6.69772C71.8145 5.28561 73.1002 4.13696 74.5755 3.25175C76.0509 2.34547 77.3576 1.89233 78.4957 1.89233C79.0015 1.89233 79.4652 2.09256 79.8867 2.49301C80.3293 2.89346 80.5506 3.28337 80.5506 3.66274C80.5506 4.35826 80.0554 5.14862 79.0648 6.03382C78.0742 6.89795 77.0309 7.604 75.9349 8.15198C74.8601 8.67889 74.1435 8.94234 73.7852 8.94234C73.4479 8.94234 73.195 8.78427 73.0264 8.46813C72.9421 8.4049 72.8262 8.37328 72.6787 8.37328C72.5311 8.37328 72.2887 8.65781 71.9515 9.22687C71.6143 9.77486 71.4457 10.228 71.4457 10.5863C71.4457 10.9235 71.5722 11.1343 71.8251 11.2186C73.4269 11.2186 75.1657 10.7549 77.0414 9.82755C78.9172 8.87911 81.5096 7.22463 84.8186 4.86409C85.0504 4.69548 85.3982 4.44256 85.8619 4.10534C86.3466 3.76812 86.6311 3.5679 86.7155 3.50467C86.9051 3.6522 87 3.83135 87 4.04211C87 4.25288 86.9051 4.44256 86.7155 4.61117C85.6616 5.66498 84.2917 6.84525 82.6056 8.15198C80.9406 9.45871 79.0226 10.7022 76.8518 11.8825C74.6809 13.0417 72.9105 13.6213 71.5405 13.6213Z" fill="#3A8199"/>
</svg>
